<?xml version="1.0" encoding="UTF-8" standalone="no"?>
<svg
   xmlns:dc="http://purl.org/dc/elements/1.1/"
   xmlns:cc="http://creativecommons.org/ns#"
   xmlns:rdf="http://www.w3.org/1999/02/22-rdf-syntax-ns#"
   xmlns:svg="http://www.w3.org/2000/svg"
   xmlns="http://www.w3.org/2000/svg"
   xmlns:sodipodi="http://sodipodi.sourceforge.net/DTD/sodipodi-0.dtd"
   xmlns:inkscape="http://www.inkscape.org/namespaces/inkscape"
   width="191.005mm"
   height="141.799mm"
   viewBox="0 0 722 536"
   version="1.1"
   id="svg6"
   sodipodi:docname="piggy_b7_v1.svg"
   inkscape:version="0.92.5 (2060ec1f9f, 2020-04-08)">
  <metadata
     id="metadata12">
    <rdf:RDF>
      <cc:Work
         rdf:about="">
        <dc:format>image/svg+xml</dc:format>
        <dc:type
           rdf:resource="http://purl.org/dc/dcmitype/StillImage" />
      </cc:Work>
    </rdf:RDF>
  </metadata>
  <defs
     id="defs10" />
  <sodipodi:namedview
     pagecolor="#ffffff"
     bordercolor="#666666"
     borderopacity="1"
     objecttolerance="10"
     gridtolerance="10"
     guidetolerance="10"
     inkscape:pageopacity="0"
     inkscape:pageshadow="2"
     inkscape:window-width="2560"
     inkscape:window-height="1376"
     id="namedview8"
     showgrid="false"
     inkscape:zoom="1.7614135"
     inkscape:cx="258.96943"
     inkscape:cy="321.63847"
     inkscape:window-x="1920"
     inkscape:window-y="27"
     inkscape:window-maximized="1"
     inkscape:current-layer="svg6" />
  <path
     id="schwein"
     fill="none"
     stroke="black"
     stroke-width="1"
     d="M 235.00,75.00            C 242.19,85.78 246.70,92.99 251.85,105.00              254.88,112.09 257.46,119.43 259.00,127.00              259.73,130.64 259.95,137.09 261.85,139.87              266.00,145.92 276.03,144.25 275.33,133.00              273.59,104.59 252.68,65.79 231.00,47.92              224.22,42.33 219.10,39.09 211.00,35.73              208.20,34.57 204.07,32.89 201.02,33.52              196.07,34.54 194.08,39.61 196.32,43.99              196.32,43.99 210.30,61.00 210.30,61.00              218.28,73.19 222.88,86.94 226.37,101.00              227.80,106.75 228.11,118.19 235.02,119.67              241.19,120.99 244.19,115.36 243.82,110.00              243.02,98.53 237.52,86.05 235.00,75.00 Z            M 186.00,168.64            C 181.30,170.41 178.27,172.24 176.07,177.00              170.39,189.31 181.52,204.05 195.00,200.21              208.61,196.34 210.36,180.09 201.89,172.22              197.32,167.97 191.85,167.47 186.00,168.64 Z            M 24.22,229.03            C 18.75,233.90 17.51,249.02 18.94,256.00              19.90,260.67 23.44,265.98 28.87,262.97              31.45,261.55 32.41,258.68 33.10,256.00              34.94,248.85 38.21,224.44 24.22,229.03 Z            M 28.00,243.00            C 28.00,243.00 27.00,251.00 27.00,251.00              27.00,251.00 24.00,250.00 24.00,250.00              24.00,250.00 26.00,243.00 26.00,243.00              26.00,243.00 28.00,243.00 28.00,243.00 Z            M 43.03,242.08            C 36.13,247.04 33.59,260.82 34.04,269.00              34.33,274.24 37.71,280.88 43.96,277.81              51.67,274.01 52.24,258.25 50.71,251.00              49.72,246.27 48.84,240.91 43.03,242.08 Z            M 44.00,255.00            C 44.49,259.38 44.75,265.08 41.00,268.00              41.11,263.18 41.49,259.22 44.00,255.00 Z            M 186.00,168.64            C 181.30,170.41 178.27,172.24 176.07,177.00              170.39,189.31 181.52,204.05 195.00,200.21              208.61,196.34 210.36,180.09 201.89,172.22              197.32,167.97 191.85,167.47 186.00,168.64 Z            M 176.00,81.00            C 167.69,84.32 163.77,85.49 156.00,90.44              131.65,105.93 112.64,134.58 112.00,164.00              92.77,158.90 72.82,156.97 53.00,157.00              47.91,157.01 38.56,157.71 34.00,159.75              19.32,166.34 11.39,183.29 7.63,198.00              -0.59,230.11 -0.19,267.25 9.14,299.00              11.94,308.50 20.93,330.45 28.18,336.57              33.64,341.18 41.49,339.55 48.00,340.17              66.54,341.93 86.93,340.79 105.00,336.00              105.55,342.53 107.60,348.81 109.67,355.00              116.10,374.33 119.94,383.40 133.95,399.00              139.11,404.74 144.72,410.05 151.00,414.57              153.48,416.36 159.14,419.44 159.84,422.46              159.84,422.46 156.20,444.00 156.20,444.00              153.37,463.63 153.24,474.35 156.20,494.00              156.86,497.82 159.16,510.13 161.01,512.89              163.89,517.21 172.12,519.15 177.00,520.58              190.04,524.39 201.61,525.53 215.00,522.35              218.78,521.45 225.96,519.21 228.72,516.59              232.26,513.23 234.29,501.03 235.00,496.00              240.29,497.06 243.39,498.25 249.00,497.96              257.44,497.51 260.11,492.25 262.66,485.00              266.61,473.73 268.99,458.93 269.00,447.00              301.93,460.10 337.75,465.17 373.00,465.00              386.26,464.94 404.18,461.23 417.00,457.57              417.00,457.57 436.00,452.00 436.00,452.00              436.00,463.42 435.60,472.57 437.44,484.00              437.44,484.00 442.58,505.00 442.58,505.00              443.59,509.45 447.97,524.79 450.51,527.78              454.55,532.53 468.86,533.92 475.00,534.00              485.95,534.12 489.09,534.30 500.00,532.20              502.90,531.64 507.46,531.00 509.79,529.27              513.70,526.36 513.87,521.30 517.27,518.98              519.98,517.13 524.93,517.80 530.47,510.96              538.03,501.64 538.54,489.39 539.04,478.00              539.04,478.00 539.91,470.00 539.91,470.00              540.21,465.64 539.27,456.45 538.56,452.00              537.81,447.24 536.58,442.53 534.95,438.00              534.20,435.92 532.47,432.43 533.35,430.27              534.45,427.57 544.97,424.15 548.00,422.63              557.12,418.06 567.92,409.84 574.39,402.00              593.22,379.15 602.13,354.53 608.42,326.00              610.55,316.35 612.98,302.77 613.00,293.00              613.00,293.00 613.00,279.00 613.00,279.00              612.98,265.05 608.43,255.77 604.00,242.86              604.00,242.86 617.00,242.86 617.00,242.86              620.55,243.48 625.06,246.98 633.00,247.83              645.08,249.12 658.58,245.08 669.00,239.13              676.11,235.07 682.12,229.76 686.78,223.00              686.78,223.00 693.63,211.51 693.63,211.51              695.63,209.52 700.21,208.21 703.00,206.65              707.78,204.00 711.98,200.32 715.32,196.00              718.78,191.52 722.70,184.17 716.77,179.74              715.12,178.50 713.04,178.05 711.04,178.55              706.99,179.57 704.95,184.00 702.48,186.96              699.50,190.55 697.10,191.99 693.00,194.00              692.32,190.42 691.53,188.04 689.21,185.10              678.03,170.91 654.69,183.56 663.77,199.96              664.89,201.99 666.37,203.53 668.17,204.96              670.81,207.04 672.85,208.00 676.00,209.00              671.16,223.59 651.43,232.34 637.00,233.00              643.43,227.41 648.71,223.27 651.93,215.00              662.37,188.22 639.25,161.39 612.00,162.01              596.50,162.37 584.36,174.30 584.34,190.00              584.33,194.70 586.10,202.54 587.70,207.00              590.64,215.25 595.58,222.21 601.00,229.00              594.59,227.10 593.47,223.26 590.00,218.00              584.91,210.30 583.15,208.06 577.25,201.00              562.19,182.99 545.02,166.49 525.00,154.06              517.71,149.54 512.82,147.18 505.00,143.85              502.35,142.72 496.53,140.88 495.02,138.59              493.36,136.04 494.69,131.26 494.49,128.00              493.89,118.65 493.45,112.02 490.31,103.00              478.36,68.74 449.68,49.11 414.00,47.09              410.23,46.88 408.51,47.46 405.00,47.84              379.11,50.61 356.07,63.17 342.45,86.00              337.66,94.04 334.15,102.85 332.21,112.00              331.39,115.88 331.04,124.84 328.44,127.27              326.73,128.86 323.26,129.34 321.00,129.88              321.00,129.88 305.00,134.00 305.00,134.00              303.21,95.10 289.89,58.80 262.00,31.00              250.00,19.04 238.28,10.87 222.00,5.88              201.33,-0.44 172.40,1.15 151.00,3.72              143.63,4.60 130.81,3.39 129.23,13.00              127.61,22.89 138.37,24.30 149.00,34.09              164.73,48.58 169.60,61.44 176.00,81.00 Z            M 331.00,143.00            C 331.00,143.00 337.31,162.00 337.31,162.00              337.31,162.00 350.00,183.00 350.00,183.00              344.63,184.57 334.42,186.41 333.23,193.00              332.84,195.15 333.74,197.11 335.29,198.57              339.86,202.89 347.75,199.20 353.00,197.71              366.96,193.74 381.56,191.91 396.00,191.09              400.29,190.85 402.13,191.65 406.00,192.04              406.00,192.04 415.00,192.04 415.00,192.04              426.50,193.26 438.11,195.82 449.00,199.69              449.00,199.69 466.00,206.28 466.00,206.28              468.52,207.36 474.16,209.94 476.73,210.01              480.81,210.14 486.04,205.03 482.89,200.02              480.33,195.94 472.37,193.06 468.00,191.00              468.00,191.00 468.00,189.00 468.00,189.00              477.27,181.78 486.91,166.43 490.00,155.00              509.06,158.45 533.57,177.57 547.00,191.00              564.93,208.92 579.07,224.34 589.28,248.00              593.62,258.05 596.98,265.88 597.00,277.00              597.00,277.00 597.00,290.00 597.00,290.00              596.98,302.55 594.65,314.81 591.89,327.00              591.89,327.00 590.25,336.00 590.25,336.00              586.89,349.80 580.81,364.81 573.55,377.00              566.14,389.42 556.77,400.24 544.00,407.33              534.89,412.40 520.12,414.93 516.60,426.00              515.39,429.79 517.77,435.32 519.00,439.00              522.11,448.33 523.98,451.90 524.00,462.00              524.01,471.41 524.94,482.09 522.00,491.00              520.30,486.72 521.05,480.66 521.00,476.00              520.89,466.74 517.12,449.77 513.95,441.00              512.12,435.97 509.79,427.44 504.00,425.84              502.25,425.36 500.69,425.72 499.28,426.75              493.08,431.09 497.50,439.50 499.28,445.00              502.97,455.91 505.86,467.42 506.00,479.00              506.03,482.23 506.72,489.89 504.40,492.16              501.58,494.93 490.06,495.95 486.00,496.00              478.97,496.08 461.29,495.52 456.39,490.61              451.27,485.48 451.06,465.50 451.00,458.00              451.00,458.00 451.00,445.00 451.00,445.00              451.01,439.54 453.87,428.10 444.00,431.39              444.00,431.39 430.00,437.31 430.00,437.31              418.79,441.38 405.71,445.18 394.00,447.39              366.86,452.51 331.83,448.69 305.00,442.35              291.93,439.25 269.93,431.69 258.00,425.73              253.56,423.51 241.16,415.14 237.00,415.64              233.08,416.12 230.85,419.45 230.06,423.00              228.63,429.35 228.07,438.45 228.00,445.00              227.90,453.35 225.55,469.51 224.00,478.00              217.70,476.76 212.36,479.22 206.00,479.83              197.88,480.62 189.69,479.23 182.00,476.64              178.99,475.63 170.83,472.70 169.81,469.73              168.93,467.97 169.92,462.40 169.81,460.00              170.25,449.84 172.11,439.90 174.35,430.00              175.41,425.31 178.01,417.26 175.26,413.05              173.04,409.65 168.41,407.88 165.00,405.77              160.98,403.27 155.52,399.00 152.00,395.83              137.53,382.80 130.69,370.09 124.67,352.00              123.30,347.90 120.10,338.05 120.14,334.04              120.19,328.62 126.97,326.86 131.00,324.31              143.20,316.55 151.02,309.41 160.96,299.00              165.07,294.70 173.37,286.00 165.86,280.74              162.37,278.29 159.24,279.74 156.43,282.34              156.43,282.34 147.91,292.00 147.91,292.00              147.91,292.00 138.00,301.00 138.00,301.00              120.20,316.28 98.58,324.96 75.00,325.00              75.00,325.00 49.00,325.00 49.00,325.00              51.96,316.98 57.03,312.39 62.49,296.00              70.92,270.69 72.31,241.00 66.58,215.00              64.40,205.12 61.55,196.30 57.57,187.00              55.40,181.93 52.52,177.33 51.00,172.00              66.12,172.00 81.14,173.25 96.00,176.20              104.83,177.96 113.95,181.43 121.89,175.20              123.51,173.93 124.47,172.83 125.35,170.96              125.35,170.96 130.67,146.00 130.67,146.00              137.06,126.42 157.93,100.81 179.00,97.00              179.12,101.49 179.86,106.84 185.02,108.34              188.73,109.43 192.01,106.21 193.26,103.00              194.91,98.76 192.77,87.65 191.79,83.00              188.50,67.42 182.92,52.02 173.57,39.00              173.57,39.00 156.00,19.00 156.00,19.00              159.30,18.06 170.34,17.05 174.00,17.00              191.93,16.79 206.94,15.94 224.00,22.82              256.41,35.90 279.87,74.78 286.55,108.00              289.56,122.95 289.02,134.04 289.02,149.00              288.99,152.34 288.10,159.45 289.02,161.98              291.09,167.46 296.45,169.46 300.70,164.85              305.76,159.37 302.07,153.46 306.29,150.41              309.54,148.07 326.19,144.27 331.00,143.00 Z            M 403.00,62.29            C 432.56,59.49 460.64,72.14 473.68,100.00              478.84,111.03 480.14,121.02 480.00,133.00              479.83,147.44 473.60,161.96 464.54,173.00              461.57,176.62 455.83,183.02 451.00,183.63              451.00,183.63 431.00,179.40 431.00,179.40              419.78,177.16 406.43,175.95 395.00,176.00              395.00,176.00 368.00,178.52 368.00,178.52              365.88,178.19 364.61,177.24 363.04,175.85              357.27,170.77 352.47,162.09 349.60,155.00              346.91,148.33 345.09,141.22 345.00,134.00              344.89,124.60 344.70,119.24 347.44,110.00              355.21,83.75 376.40,66.69 403.00,62.29 Z            M 610.00,177.34            C 621.34,176.04 634.94,183.68 638.35,195.00              643.05,210.56 628.20,222.80 621.00,223.48              616.09,223.94 612.00,218.45 609.29,215.00              601.53,205.11 592.29,182.51 610.00,177.34 Z            M 36.00,178.00            C 57.75,211.42 60.39,262.36 45.55,299.00              42.93,305.47 38.82,312.15 35.00,318.00              28.81,312.55 26.19,301.74 23.67,294.00              14.90,267.09 16.02,239.57 20.27,212.00              21.87,201.68 26.15,183.09 36.00,178.00 Z            M 244.00,435.00            C 244.00,435.00 253.01,440.63 253.01,440.63              253.01,440.63 253.83,451.00 253.83,451.00              253.83,451.00 250.00,476.00 250.00,476.00              250.00,476.00 240.00,473.00 240.00,473.00              240.00,473.00 243.00,446.00 243.00,446.00              243.00,446.00 244.00,435.00 244.00,435.00 Z"
     style="fill:#bf3922;fill-opacity:1;stroke-width:0;stroke-miterlimit:4;stroke-dasharray:none" />
  <path
     id="DM"
     fill="none"
     stroke="black"
     stroke-width="1"
     d="M 414.00,102.00            C 414.00,102.00 414.00,149.00 414.00,149.00              414.00,149.00 425.00,149.00 425.00,149.00              425.00,149.00 425.00,115.00 425.00,115.00              425.00,115.00 432.00,131.00 432.00,131.00              432.00,131.00 436.49,138.98 436.49,138.98              436.49,138.98 444.00,140.00 444.00,140.00              444.00,140.00 454.00,115.00 454.00,115.00              454.00,115.00 455.00,149.00 455.00,149.00              455.00,149.00 466.00,149.00 466.00,149.00              466.00,149.00 466.00,102.00 466.00,102.00              466.00,102.00 451.39,103.02 451.39,103.02              451.39,103.02 447.15,110.00 447.15,110.00              447.15,110.00 440.00,127.00 440.00,127.00              440.00,127.00 432.15,110.00 432.15,110.00              432.15,110.00 427.59,102.57 427.59,102.57              427.59,102.57 414.00,102.00 414.00,102.00 Z            M 360.00,102.00            C 360.00,102.00 360.00,149.00 360.00,149.00              368.91,149.00 384.20,149.91 392.00,146.00              407.54,138.21 406.60,115.01 394.96,106.85              386.68,101.05 369.92,102.00 360.00,102.00 Z            M 371.00,140.00            C 371.00,140.00 371.00,111.00 371.00,111.00              376.25,111.00 381.46,110.36 385.93,113.65              394.10,119.61 393.16,133.08 385.93,137.77              381.58,140.56 375.93,140.00 371.00,140.00 Z"
     style="fill:#bf3922;fill-opacity:1;stroke-width:0;stroke-miterlimit:4;stroke-dasharray:none" />
  <path
     id="Auge"
     fill="none"
     stroke="black"
     stroke-width="1"
     d="M 186.00,168.64            C 181.30,170.41 178.27,172.24 176.07,177.00              170.39,189.31 181.52,204.05 195.00,200.21              208.61,196.34 210.36,180.09 201.89,172.22              197.32,167.97 191.85,167.47 186.00,168.64 Z            M 780.00,118.50"
     style="stroke-width:0;stroke-miterlimit:4;stroke-dasharray:none" />
  <path
     id="B7"
     fill="none"
     stroke="black"
     stroke-width="1"
     d="M 370.00,237.00            C 370.00,237.00 370.00,260.00 370.00,260.00              370.00,260.00 431.00,260.00 431.00,260.00              431.00,260.00 417.78,291.00 417.78,291.00              417.78,291.00 398.69,333.00 398.69,333.00              398.69,333.00 385.00,364.00 385.00,364.00              385.00,364.00 408.00,364.00 408.00,364.00              410.27,364.00 413.66,364.22 415.61,362.98              418.04,361.43 419.87,356.62 421.00,354.00              421.00,354.00 429.69,335.00 429.69,335.00              429.69,335.00 454.25,281.00 454.25,281.00              459.16,270.69 465.98,259.60 466.00,248.00              466.00,248.00 466.00,237.00 466.00,237.00              466.00,237.00 370.00,237.00 370.00,237.00 Z            M 241.00,237.00            C 241.00,237.00 241.00,364.00 241.00,364.00              241.00,364.00 298.00,364.00 298.00,364.00              307.63,363.95 321.56,361.79 330.00,357.10              347.19,347.54 350.78,321.32 339.07,306.04              334.90,300.59 330.14,298.50 324.00,296.00              329.46,292.84 333.40,290.69 336.78,285.00              339.30,280.77 339.94,276.82 340.00,272.00              340.16,258.67 338.02,249.14 325.00,242.61              313.95,237.06 300.09,237.00 288.00,237.00              288.00,237.00 241.00,237.00 241.00,237.00 Z            M 273.00,286.00            C 273.00,286.00 273.00,259.00 273.00,259.00              273.00,259.00 293.00,259.00 293.00,259.00              310.92,259.24 310.56,276.80 303.87,282.58              297.92,287.72 280.94,286.00 273.00,286.00 Z            M 273.00,342.00            C 273.00,342.00 273.00,317.00 273.00,317.00              273.02,309.27 272.87,308.06 281.00,308.00              288.51,307.95 299.54,307.02 306.00,311.00              316.15,317.27 315.51,334.12 305.00,339.72              301.47,341.61 297.91,341.95 294.00,342.00              294.00,342.00 273.00,342.00 273.00,342.00 Z"
     style="fill:#bf3922;fill-opacity:1;stroke-width:0;stroke-miterlimit:4;stroke-dasharray:none" />
</svg>
